<svg class="svg-icon" style="width: 1em; height: 1em;vertical-align: middle;fill: currentColor;overflow: hidden;" viewBox="0 0 1024 1024" version="1.1" xmlns="http://www.w3.org/2000/svg"><path d="M469.333333 0 469.333333 170.666667 554.666667 170.666667 554.666667 0 469.333333 0M780.8 97.706667 650.24 225.706667 709.973333 286.293333 840.533333 158.293333 780.8 97.706667M243.626667 97.706667 183.04 158.293333 311.04 286.293333 371.626667 225.706667 243.626667 97.706667M512 256C417.706667 256 341.333333 332.373333 341.333333 426.666667L341.333333 682.666667 256 682.666667 256 768 384 768 384 981.333333 469.333333 981.333333 469.333333 768 554.666667 768 554.666667 981.333333 640 981.333333 640 768 768 768 768 682.666667 682.666667 682.666667 682.666667 426.666667C682.666667 332.373333 606.293333 256 512 256M85.333333 384 85.333333 469.333333 256 469.333333 256 384 85.333333 384M768 384 768 469.333333 938.666667 469.333333 938.666667 384 768 384Z"  /></svg>